<mxfile host="app.diagrams.net" modified="2023-07-13T11:35:52.179Z" agent="Mozilla/5.0 (X11; Linux x86_64; rv:102.0) Gecko/20100101 Firefox/102.0" etag="jFL8dmFhTdr-eJCD-jow" version="21.6.2" type="github">
  <diagram name="Page-1" id="lhWWaMpEu8fQ6LXQEqeM">
    <mxGraphModel dx="1324" dy="744" grid="1" gridSize="10" guides="1" tooltips="1" connect="1" arrows="1" fold="1" page="1" pageScale="1" pageWidth="827" pageHeight="1169" math="0" shadow="0">
      <root>
        <mxCell id="0" />
        <mxCell id="1" parent="0" />
        <mxCell id="IkbrlV8vESrTVHvmI2JB-1" value="Jungfrau_1" style="text;html=1;align=center;verticalAlign=middle;resizable=0;points=[];autosize=1;strokeColor=none;fillColor=none;" parent="1" vertex="1">
          <mxGeometry x="126" y="105" width="80" height="30" as="geometry" />
        </mxCell>
        <mxCell id="IkbrlV8vESrTVHvmI2JB-2" value="Jungfrau_2" style="text;html=1;align=center;verticalAlign=middle;resizable=0;points=[];autosize=1;strokeColor=none;fillColor=none;" parent="1" vertex="1">
          <mxGeometry x="126" y="190" width="80" height="30" as="geometry" />
        </mxCell>
        <mxCell id="IkbrlV8vESrTVHvmI2JB-3" value="Jungfrau_3" style="text;html=1;align=center;verticalAlign=middle;resizable=0;points=[];autosize=1;strokeColor=none;fillColor=none;" parent="1" vertex="1">
          <mxGeometry x="126" y="280" width="80" height="30" as="geometry" />
        </mxCell>
        <mxCell id="4uXHaUCJgs3PZZNH2dnm-22" style="edgeStyle=orthogonalEdgeStyle;rounded=0;orthogonalLoop=1;jettySize=auto;html=1;entryX=0.62;entryY=0.058;entryDx=0;entryDy=0;entryPerimeter=0;" parent="1" target="IkbrlV8vESrTVHvmI2JB-17" edge="1">
          <mxGeometry relative="1" as="geometry">
            <mxPoint x="220" y="120" as="sourcePoint" />
          </mxGeometry>
        </mxCell>
        <mxCell id="4uXHaUCJgs3PZZNH2dnm-23" style="edgeStyle=orthogonalEdgeStyle;rounded=0;orthogonalLoop=1;jettySize=auto;html=1;entryX=0.5;entryY=0;entryDx=0;entryDy=0;" parent="1" target="IkbrlV8vESrTVHvmI2JB-17" edge="1">
          <mxGeometry relative="1" as="geometry">
            <mxPoint x="220" y="200" as="sourcePoint" />
          </mxGeometry>
        </mxCell>
        <mxCell id="4uXHaUCJgs3PZZNH2dnm-24" style="edgeStyle=orthogonalEdgeStyle;rounded=0;orthogonalLoop=1;jettySize=auto;html=1;entryX=0.38;entryY=0;entryDx=0;entryDy=0;entryPerimeter=0;" parent="1" target="IkbrlV8vESrTVHvmI2JB-17" edge="1">
          <mxGeometry relative="1" as="geometry">
            <mxPoint x="220" y="280" as="sourcePoint" />
          </mxGeometry>
        </mxCell>
        <mxCell id="IkbrlV8vESrTVHvmI2JB-46" style="edgeStyle=orthogonalEdgeStyle;rounded=0;orthogonalLoop=1;jettySize=auto;html=1;entryX=0;entryY=0.5;entryDx=0;entryDy=0;" parent="1" source="IkbrlV8vESrTVHvmI2JB-17" target="IkbrlV8vESrTVHvmI2JB-42" edge="1">
          <mxGeometry relative="1" as="geometry" />
        </mxCell>
        <mxCell id="4uXHaUCJgs3PZZNH2dnm-31" style="edgeStyle=orthogonalEdgeStyle;rounded=0;orthogonalLoop=1;jettySize=auto;html=1;" parent="1" source="IkbrlV8vESrTVHvmI2JB-17" edge="1">
          <mxGeometry relative="1" as="geometry">
            <mxPoint x="780" y="386" as="targetPoint" />
          </mxGeometry>
        </mxCell>
        <mxCell id="4uXHaUCJgs3PZZNH2dnm-32" style="edgeStyle=orthogonalEdgeStyle;rounded=0;orthogonalLoop=1;jettySize=auto;html=1;entryX=0;entryY=0.5;entryDx=0;entryDy=0;" parent="1" source="IkbrlV8vESrTVHvmI2JB-17" target="4uXHaUCJgs3PZZNH2dnm-30" edge="1">
          <mxGeometry relative="1" as="geometry">
            <Array as="points">
              <mxPoint x="620" y="386" />
              <mxPoint x="620" y="436" />
            </Array>
          </mxGeometry>
        </mxCell>
        <mxCell id="IkbrlV8vESrTVHvmI2JB-17" value="pyfai" style="rounded=0;whiteSpace=wrap;html=1;" parent="1" vertex="1">
          <mxGeometry x="390" y="360" width="200" height="52" as="geometry" />
        </mxCell>
        <mxCell id="IkbrlV8vESrTVHvmI2JB-30" value="" style="shape=link;html=1;rounded=0;" parent="1" edge="1">
          <mxGeometry width="100" relative="1" as="geometry">
            <mxPoint x="780" y="460" as="sourcePoint" />
            <mxPoint x="780" y="10" as="targetPoint" />
          </mxGeometry>
        </mxCell>
        <mxCell id="IkbrlV8vESrTVHvmI2JB-33" value="outputs" style="edgeLabel;html=1;align=center;verticalAlign=middle;resizable=0;points=[];" parent="IkbrlV8vESrTVHvmI2JB-30" vertex="1" connectable="0">
          <mxGeometry x="0.9459" y="-3" relative="1" as="geometry">
            <mxPoint x="-3" y="45" as="offset" />
          </mxGeometry>
        </mxCell>
        <mxCell id="IkbrlV8vESrTVHvmI2JB-34" value="Jungrau_0" style="text;html=1;align=center;verticalAlign=middle;resizable=0;points=[];autosize=1;strokeColor=none;fillColor=none;" parent="1" vertex="1">
          <mxGeometry x="126" y="30" width="80" height="30" as="geometry" />
        </mxCell>
        <mxCell id="4uXHaUCJgs3PZZNH2dnm-20" style="edgeStyle=orthogonalEdgeStyle;rounded=0;orthogonalLoop=1;jettySize=auto;html=1;entryX=0.75;entryY=0;entryDx=0;entryDy=0;shadow=0;" parent="1" target="IkbrlV8vESrTVHvmI2JB-17" edge="1">
          <mxGeometry relative="1" as="geometry">
            <mxPoint x="220" y="40" as="sourcePoint" />
          </mxGeometry>
        </mxCell>
        <mxCell id="IkbrlV8vESrTVHvmI2JB-48" style="edgeStyle=orthogonalEdgeStyle;rounded=0;orthogonalLoop=1;jettySize=auto;html=1;exitX=0.5;exitY=1;exitDx=0;exitDy=0;entryX=0.5;entryY=0;entryDx=0;entryDy=0;" parent="1" source="IkbrlV8vESrTVHvmI2JB-42" target="IkbrlV8vESrTVHvmI2JB-47" edge="1">
          <mxGeometry relative="1" as="geometry" />
        </mxCell>
        <mxCell id="IkbrlV8vESrTVHvmI2JB-42" value="associate with sample_id" style="rounded=0;whiteSpace=wrap;html=1;" parent="1" vertex="1">
          <mxGeometry x="630" y="507" width="110" height="60" as="geometry" />
        </mxCell>
        <mxCell id="IkbrlV8vESrTVHvmI2JB-45" style="edgeStyle=orthogonalEdgeStyle;rounded=0;orthogonalLoop=1;jettySize=auto;html=1;entryX=0;entryY=0.5;entryDx=0;entryDy=0;" parent="1" target="IkbrlV8vESrTVHvmI2JB-42" edge="1">
          <mxGeometry relative="1" as="geometry">
            <mxPoint x="220" y="537" as="sourcePoint" />
          </mxGeometry>
        </mxCell>
        <mxCell id="IkbrlV8vESrTVHvmI2JB-44" value="sample_id" style="text;html=1;align=center;verticalAlign=middle;resizable=0;points=[];autosize=1;strokeColor=none;fillColor=none;" parent="1" vertex="1">
          <mxGeometry x="126" y="522" width="80" height="30" as="geometry" />
        </mxCell>
        <mxCell id="IkbrlV8vESrTVHvmI2JB-47" value="" style="shape=datastore;whiteSpace=wrap;html=1;" parent="1" vertex="1">
          <mxGeometry x="660" y="602" width="60" height="60" as="geometry" />
        </mxCell>
        <mxCell id="4uXHaUCJgs3PZZNH2dnm-34" value="" style="edgeStyle=orthogonalEdgeStyle;rounded=0;orthogonalLoop=1;jettySize=auto;html=1;" parent="1" source="4uXHaUCJgs3PZZNH2dnm-30" edge="1">
          <mxGeometry relative="1" as="geometry">
            <mxPoint x="780" y="436" as="targetPoint" />
          </mxGeometry>
        </mxCell>
        <mxCell id="4uXHaUCJgs3PZZNH2dnm-35" style="edgeStyle=orthogonalEdgeStyle;rounded=0;orthogonalLoop=1;jettySize=auto;html=1;exitX=0.5;exitY=1;exitDx=0;exitDy=0;entryX=0.5;entryY=0;entryDx=0;entryDy=0;" parent="1" source="4uXHaUCJgs3PZZNH2dnm-30" target="IkbrlV8vESrTVHvmI2JB-42" edge="1">
          <mxGeometry relative="1" as="geometry" />
        </mxCell>
        <mxCell id="4uXHaUCJgs3PZZNH2dnm-30" value="reduce" style="rounded=0;whiteSpace=wrap;html=1;" parent="1" vertex="1">
          <mxGeometry x="640" y="410" width="90" height="52" as="geometry" />
        </mxCell>
      </root>
    </mxGraphModel>
  </diagram>
</mxfile>
